<?xml version="1.0" standalone="no"?>
<!DOCTYPE svg PUBLIC "-//W3C//DTD SVG 20010904//EN"
 "http://www.w3.org/TR/2001/REC-SVG-20010904/DTD/svg10.dtd">
<svg version="1.0" xmlns="http://www.w3.org/2000/svg"
 width="32.000000pt" height="32.000000pt" viewBox="0 0 32.000000 32.000000"
 preserveAspectRatio="xMidYMid meet">
<metadata>
Created by potrace 1.10, written by Peter Selinger 2001-2011
</metadata>
<g transform="translate(0.000000,32.000000) scale(0.100000,-0.100000)"
fill="#000000" stroke="none">
<path d="M30 185 l0 -85 130 0 130 0 0 85 0 85 -130 0 -130 0 0 -85z m240 -5
l0 -60 -110 0 -110 0 0 60 0 60 110 0 110 0 0 -60z"/>
<path d="M0 77 c0 -17 57 -27 160 -27 103 0 160 10 160 27 0 5 -72 8 -160 8
-88 0 -160 -3 -160 -8z"/>
</g>
</svg>
